<?xml version="1.0" standalone="no"?>
<!DOCTYPE svg PUBLIC "-//W3C//DTD SVG 20010904//EN"
 "http://www.w3.org/TR/2001/REC-SVG-20010904/DTD/svg10.dtd">
<svg version="1.0" xmlns="http://www.w3.org/2000/svg"
 width="512.000000pt" height="512.000000pt" viewBox="0 0 512.000000 512.000000"
 preserveAspectRatio="xMidYMid meet">

<g transform="translate(0.000000,512.000000) scale(0.100000,-0.100000)"
fill="#000000" stroke="none">
<path d="M2405 5114 c-173 -19 -390 -81 -539 -155 -417 -206 -695 -556 -799
-1004 -21 -89 -21 -113 -27 -1655 l-5 -1565 -22 -35 c-42 -69 -53 -132 -53
-315 0 -134 3 -175 15 -192 28 -40 286 -133 470 -170 83 -17 170 -18 1115 -18
l1025 0 113 23 c194 39 428 128 451 170 7 13 11 87 11 190 0 180 -11 243 -53
312 l-22 35 -5 1565 c-6 1544 -6 1566 -27 1655 -30 130 -57 206 -118 330 -201
415 -598 712 -1074 806 -104 20 -361 33 -456 23z m1179 -599 c25 -29 46 -56
46 -59 0 -11 -136 -74 -225 -104 -180 -60 -410 -96 -694 -108 l-159 -7 -59 33
c-54 31 -203 128 -203 133 0 1 116 2 257 2 279 0 392 12 571 60 106 28 236 80
308 123 l49 29 32 -24 c17 -14 52 -49 77 -78z m-344 -699 c25 -27 102 -95 171
-152 70 -56 143 -122 163 -147 89 -108 117 -237 98 -449 -15 -165 -32 -249
-83 -403 -143 -431 -468 -772 -836 -877 -109 -31 -277 -31 -386 0 -175 50
-331 145 -477 292 -166 167 -284 359 -359 585 -65 197 -91 357 -91 576 l0 116
131 7 c555 29 1066 168 1353 366 76 53 206 180 206 203 1 6 15 -6 33 -28 18
-22 52 -62 77 -89z m-1935 -903 c14 -95 66 -276 110 -384 25 -60 45 -112 45
-115 0 -3 -23 7 -51 23 -124 67 -209 229 -209 399 0 62 14 98 44 112 43 21 53
15 61 -35z m2568 36 c33 -15 47 -49 47 -113 0 -170 -85 -332 -209 -399 -28
-16 -51 -26 -51 -23 0 3 20 55 45 115 44 108 96 289 110 384 8 50 16 55 58 36z
m-1456 -1339 c104 -17 285 -10 364 15 18 6 19 -1 19 -182 0 -226 -5 -241 -93
-287 -133 -68 -317 -31 -372 75 -12 22 -15 70 -15 214 0 179 1 186 19 180 11
-3 45 -10 78 -15z m-48 -613 c64 -31 71 -32 191 -32 119 0 128 1 190 31 36 17
86 49 111 72 33 29 49 38 60 31 8 -5 229 -95 491 -200 509 -204 522 -210 564
-295 15 -31 19 -67 22 -175 l4 -137 -82 -31 c-112 -44 -265 -79 -395 -91 -146
-13 -1784 -13 -1930 0 -130 12 -283 47 -396 91 l-81 31 4 137 c3 115 7 142 26
178 41 79 69 94 564 293 256 103 474 193 484 198 15 8 27 2 63 -29 24 -22 74
-54 110 -72z"/>
<path d="M1877 3186 c-115 -43 -195 -151 -197 -263 l0 -43 80 0 c76 0 80 1 80
23 0 12 9 41 19 63 15 34 28 45 65 59 57 22 122 16 165 -15 32 -22 71 -86 71
-115 0 -12 15 -15 81 -15 l82 0 -7 47 c-13 100 -86 197 -181 243 -62 30 -198
38 -258 16z"/>
<path d="M3024 3186 c-119 -39 -224 -171 -224 -283 0 -22 3 -23 79 -23 l79 0
6 32 c14 71 87 128 163 128 64 -1 117 -31 136 -79 10 -23 17 -50 17 -61 0 -18
7 -20 81 -20 l82 0 -6 58 c-8 99 -68 186 -160 234 -52 27 -190 35 -253 14z"/>
<path d="M2103 2454 c-22 -22 -25 -31 -19 -71 16 -120 132 -270 256 -329 147
-72 293 -72 440 0 124 59 240 209 256 329 6 40 3 49 -19 71 l-26 26 -431 0
-431 0 -26 -26z m371 -144 c-34 -5 -78 -16 -99 -25 -44 -18 -59 -15 -75 14
-11 21 -9 21 112 20 109 -1 116 -2 62 -9z m346 -11 c-16 -29 -31 -32 -75 -14
-21 9 -65 20 -99 25 -54 7 -47 8 62 9 121 1 123 1 112 -20z"/>
</g>
</svg>
